<svg xmlns="http://www.w3.org/2000/svg" viewBox="0 0 591.7 196" preserveAspectRatio="none"><path fill="#ff9a1a" d="M591.7 98c-.5-.1-2.6-.5-11.9-3-11.8-3.1-8.7-17-15-17s-5 12-11 12c-14.3 0-13.3-44-28-44s-8.7 25-22 25c-14.3 0-9.3-71-43.1-71-21.7 0-18.6 28.5-40.6 28.5S399.5 0 377.3 0s-24.5 28.5-39.5 28.5S317.5 0 295.9 0s-27 28.5-42 28.5S236.5 0 214.4 0s-20.8 28.5-42.8 28.5C149.6 28.5 152.7 0 131 0c-33.7 0-28.7 71-43.1 71-13.3 0-7.3-25-22-25s-13.7 44-28 44c-6 0-4.7-12-11-12s-3.2 13.9-15 17C2.6 97.5.5 97.9 0 98h.1H0c.5.1 2.6.5 11.9 3 11.8 3.1 8.7 17 15 17s5-12 11-12c14.3 0 13.3 44 28 44s8.7-25 22-25c14.3 0 9.3 71 43.1 71 21.7 0 18.6-28.5 40.6-28.5s20.6 28.5 42.8 28.5 24.5-28.5 39.5-28.5 20.3 28.5 42 28.5 27-28.5 42-28.5 17.3 28.5 39.5 28.5 20.8-28.5 42.8-28.5c22 0 18.9 28.5 40.6 28.5 33.7 0 28.7-71 43.1-71 13.3 0 7.3 25 22 25s13.7-44 28-44c6 0 4.7 12 11 12s3.2-13.9 15-17c9.3-2.5 11.4-2.9 11.8-3h-.2.2z"/></svg>
